<?xml version="1.0" encoding="utf-8"?>
<!-- Generator: Adobe Illustrator 16.0.0, SVG Export Plug-In . SVG Version: 6.00 Build 0)  -->
<!DOCTYPE svg PUBLIC "-//W3C//DTD SVG 1.1//EN" "http://www.w3.org/Graphics/SVG/1.1/DTD/svg11.dtd">
<svg version="1.1" id="Layer_1" xmlns="http://www.w3.org/2000/svg" xmlns:xlink="http://www.w3.org/1999/xlink" x="0px" y="0px"
	 width="122.422px" height="122.423px" viewBox="0 0 122.422 122.423" enable-background="new 0 0 122.422 122.423"
	 xml:space="preserve">
<g>
	<path fill="#FFCC05" d="M61.211,0C27.458,0,0,27.458,0,61.212c0,33.75,27.458,61.211,61.211,61.211
		c33.75,0,61.211-27.461,61.211-61.211C122.422,27.458,94.961,0,61.211,0L61.211,0z M77.938,104.809l-13.446-34.12
		c3.929-1.36,6.748-5.087,6.748-9.477c0-0.529-0.04-1.046-0.119-1.549l36.012-4.896C110.013,75.683,98.432,96.651,77.938,104.809
		L77.938,104.809z M89.963,24.292L67.071,53.074c-1.648-1.188-3.674-1.894-5.86-1.894c-2.428,0-4.654,0.863-6.39,2.296
		L32.027,24.025C48.701,11.076,72.648,10.619,89.963,24.292L89.963,24.292z M51.299,59.675c-0.079,0.5-0.119,1.013-0.119,1.537
		c0,4.012,2.354,7.471,5.757,9.074l-13.979,34.154c-19.554-7.966-31.921-28.476-28.739-50.305L51.299,59.675z M51.299,59.675"/>
</g>
</svg>
