<?xml version="1.0" encoding="utf-8"?>
<!-- Generator: Adobe Illustrator 16.0.0, SVG Export Plug-In . SVG Version: 6.00 Build 0)  -->
<!DOCTYPE svg PUBLIC "-//W3C//DTD SVG 1.1//EN" "http://www.w3.org/Graphics/SVG/1.1/DTD/svg11.dtd">
<svg version="1.1" id="Layer_1" xmlns="http://www.w3.org/2000/svg" xmlns:xlink="http://www.w3.org/1999/xlink" x="0px" y="0px"
	 width="45.624px" height="88.777px" viewBox="0 0 45.624 88.777" enable-background="new 0 0 45.624 88.777" xml:space="preserve">
<g>
	<polygon fill="#617935" points="45.624,25.071 26.653,25.071 18.972,25.071 0,25.071 18.972,44.042 18.972,88.777 26.653,88.777
		26.653,44.042 	"/>
	<path fill="#F05228" d="M22.812,21.546c5.95,0,10.773-4.823,10.773-10.773S28.762,0,22.812,0c-5.949,0-10.773,4.823-10.773,10.773
		S16.862,21.546,22.812,21.546z M16.87,7.574l2.743-2.743l3.199,3.2l3.2-3.2l2.742,2.743l-3.199,3.199l3.199,3.2l-2.742,2.742
		l-3.2-3.2l-3.199,3.2l-2.743-2.742l3.2-3.2L16.87,7.574z"/>
</g>
</svg>
