<?xml version="1.0" encoding="utf-8"?>
<!-- Generator: Adobe Illustrator 16.0.0, SVG Export Plug-In . SVG Version: 6.00 Build 0)  -->
<!DOCTYPE svg PUBLIC "-//W3C//DTD SVG 1.1//EN" "http://www.w3.org/Graphics/SVG/1.1/DTD/svg11.dtd">
<svg version="1.1" id="Layer_1" xmlns="http://www.w3.org/2000/svg" xmlns:xlink="http://www.w3.org/1999/xlink" x="0px" y="0px"
	 width="320.59px" height="320.605px" viewBox="0 0 320.59 320.605" enable-background="new 0 0 320.59 320.605"
	 xml:space="preserve">
<path fill="#231F20" d="M0,160.302C0,71.781,71.776,0,160.295,0c88.52,0,160.295,71.781,160.295,160.302
	c0,88.517-71.775,160.294-160.295,160.305C71.776,320.605,0,248.818,0,160.302z"/>
<radialGradient id="SVGID_1_" cx="-2485.3232" cy="538.916" r="160.9651" gradientTransform="matrix(0 -1 1 0 -375.4863 -2325.0176)" gradientUnits="userSpaceOnUse">
	<stop  offset="0" style="stop-color:#585964"/>
	<stop  offset="0.46" style="stop-color:#585964"/>
	<stop  offset="0.58" style="stop-color:#979DA4"/>
	<stop  offset="0.67" style="stop-color:#CDD6E1"/>
	<stop  offset="0.72" style="stop-color:#EFF3F5"/>
	<stop  offset="0.78" style="stop-color:#FFFFFF"/>
	<stop  offset="0.87" style="stop-color:#8F9EB0"/>
	<stop  offset="0.94" style="stop-color:#5C646D"/>
	<stop  offset="1" style="stop-color:#B2AFBF"/>
</radialGradient>
<path fill="url(#SVGID_1_)" d="M3.79,160.302c0-86.43,70.086-156.507,156.506-156.507c86.429,0,156.513,70.077,156.513,156.497
	c0,86.437-70.084,156.524-156.513,156.524C73.875,316.816,3.79,246.729,3.79,160.302z"/>
<path fill="#231F20" d="M263.004,260.719c-37.342,37.338-90.439,49.316-137.898,35.961c46.583,11.856,98.044-0.43,134.488-36.869
	c55.006-55.009,55.006-144.223,0-199.229c-17.662-17.665-38.857-29.645-61.318-35.971c23.716,6.04,46.17,18.333,64.722,36.887
	C318,116.498,318.008,205.718,263.004,260.719z"/>
<path fill="#231F20" d="M161.693,34.144c70.705,0,128.046,57.341,128.046,128.055c0,70.708-57.332,128.037-128.046,128.037
	c-70.703,0-128.052-57.329-128.052-128.037C33.642,91.484,90.99,34.144,161.693,34.144z"/>
<linearGradient id="SVGID_2_" gradientUnits="userSpaceOnUse" x1="-2535.7915" y1="585.5225" x2="-2466.8909" y2="518.9859" gradientTransform="matrix(0 -1 1 0 -375.4863 -2325.0176)">
	<stop  offset="0" style="stop-color:#FFFFFF"/>
	<stop  offset="1" style="stop-color:#DBDCDD"/>
</linearGradient>
<path fill="url(#SVGID_2_)" d="M161.686,35.134c69.354,0,125.592,56.235,125.603,125.581
	c-0.011,69.346-56.246,125.584-125.595,125.584c-69.344,0-125.583-56.238-125.583-125.584S92.349,35.134,161.686,35.134z"/>
<linearGradient id="SVGID_3_" gradientUnits="userSpaceOnUse" x1="-2689.874" y1="738.7266" x2="-2382.3752" y2="431.2277" gradientTransform="matrix(0 -1 1 0 -375.4863 -2325.0176)">
	<stop  offset="0" style="stop-color:#FFFFFF"/>
	<stop  offset="0.3298" style="stop-color:#FBFBFB"/>
	<stop  offset="0.6708" style="stop-color:#EEEFEF"/>
	<stop  offset="1" style="stop-color:#DBDCDD"/>
</linearGradient>
<path fill="url(#SVGID_3_)" d="M161.693,35.123c9.939,0,19.607,1.159,28.89,3.346c3.41,11.403,5.244,23.488,5.252,36.003
	c-0.008,69.342-56.243,125.588-125.589,125.588c-9.939,0-19.608-1.177-28.888-3.354c-3.409-11.412-5.246-23.488-5.246-35.992
	C36.103,91.357,92.349,35.123,161.693,35.123z"/>
<path fill="#929497" d="M208.254,67.479l4.566-8.974c0.51,0.249,1.01,0.503,1.5,0.758l-4.574,8.977
	C209.254,67.976,208.754,67.722,208.254,67.479L208.254,67.479z"/>
<path fill="#929497" d="M261.075,192.111l9.58,3.119c-0.175,0.527-0.349,1.063-0.523,1.594l-9.58-3.107
	C260.732,193.188,260.907,192.652,261.075,192.111L261.075,192.111z"/>
<path fill="#929497" d="M60.154,137.196l-9.788-2.35c0.127-0.552,0.262-1.092,0.397-1.631l9.795,2.35
	C60.425,136.106,60.29,136.656,60.154,137.196L60.154,137.196z"/>
<path fill="#929497" d="M81.925,93.682c0.357-0.424,0.715-0.853,1.088-1.281l-7.66-6.533c-0.365,0.424-0.73,0.842-1.087,1.271
	L81.925,93.682L81.925,93.682z"/>
<g>
	<path fill="#231F20" d="M161.792,45.935h-0.096l-0.116-0.001c-0.257,0-0.499,0.012-0.729,0.012h-0.5l-0.008,21.826h0.5
		c0.302,0,0.587-0.012,0.851-0.012c0.267,0,0.543,0.011,0.83,0.016l0.508,0.007V45.946h-0.5
		C162.3,45.946,162.055,45.935,161.792,45.935z"/>
	<path fill="#231F20" d="M213.052,58.111l-0.448-0.229l-9.812,19.504l0.444,0.226c0.513,0.259,1.013,0.5,1.505,0.756l0.45,0.233
		l9.797-19.5l-0.434-0.229C214.052,58.607,213.543,58.362,213.052,58.111z"/>
	<path fill="#231F20" d="M234.119,101.541l0.304,0.398l17.319-13.27l-0.299-0.396c-0.334-0.445-0.68-0.905-1.025-1.345l-0.307-0.388
		l-17.323,13.271l0.31,0.398C233.443,100.652,233.777,101.094,234.119,101.541z"/>
	<path fill="#231F20" d="M253.841,146.189l0.083,0.489l21.54-3.462l-0.073-0.49c-0.082-0.541-0.164-1.101-0.261-1.666l-0.084-0.487
		l-21.563,3.467l0.09,0.5C253.667,145.083,253.748,145.634,253.841,146.189z"/>
	<path fill="#231F20" d="M250.416,188.698c-0.174,0.534-0.338,1.065-0.507,1.593l-0.153,0.477l20.777,6.687l0.152-0.476
		c0.174-0.535,0.348-1.064,0.512-1.605l0.143-0.471l-20.771-6.678L250.416,188.698z"/>
	<path fill="#231F20" d="M227.997,225.833c-0.386,0.396-0.782,0.79-1.183,1.185l-0.359,0.354l15.436,15.43l0.354-0.346
		c0.398-0.389,0.801-0.788,1.193-1.188l0.346-0.354l-15.432-15.441L227.997,225.833z"/>
	<path fill="#231F20" d="M95.394,225.833l-0.354-0.36L79.601,240.9l0.344,0.354c0.398,0.409,0.791,0.811,1.204,1.204l0.354,0.338
		l15.427-15.427l-0.362-0.354C96.168,226.625,95.782,226.23,95.394,225.833z"/>
	<path fill="#231F20" d="M70.987,182.28v-0.003c-0.068-0.267-0.127-0.528-0.2-0.814l-0.123-0.484l-21.157,5.363l0.124,0.484
		c0.068,0.269,0.136,0.535,0.196,0.804l0.001,0.006l0.001,0.007c0.073,0.289,0.156,0.553,0.209,0.791l0.112,0.504l21.169-5.366
		l-0.122-0.484C71.128,182.811,71.053,182.54,70.987,182.28z"/>
	<path fill="#231F20" d="M70.557,139.684c0.132-0.553,0.255-1.096,0.386-1.628l0.119-0.487l-21.217-5.158l-0.117,0.488
		c-0.131,0.551-0.262,1.103-0.388,1.636l-0.115,0.484l21.215,5.154L70.557,139.684z"/>
	<path fill="#231F20" d="M90.473,100.876c0.351-0.431,0.709-0.856,1.069-1.283l0.323-0.383L75.167,85.165l-0.322,0.379
		c-0.364,0.43-0.715,0.855-1.079,1.266l-0.34,0.384l16.726,14.076L90.473,100.876z"/>
	<path fill="#231F20" d="M116.956,54.463c-0.5,0.233-1.019,0.458-1.532,0.705l-0.442,0.213l9.07,19.844l0.456-0.209
		c0.5-0.229,1.019-0.465,1.529-0.703l0.45-0.209l-9.074-19.852L116.956,54.463z"/>
</g>
<path fill="#231F20" d="M78.401,187.604h-1.897v-12.102c-0.452,0.443-1.056,0.873-1.795,1.313c-0.748,0.435-1.408,0.769-1.996,0.984
	v-1.837c1.057-0.497,1.988-1.108,2.782-1.819c0.793-0.703,1.35-1.396,1.684-2.063h1.223L78.401,187.604L78.401,187.604z"/>
<path fill="#231F20" d="M84.089,146.733v1.814l-10.225-0.006c-0.008-0.442,0.055-0.889,0.222-1.301
	c0.262-0.698,0.682-1.381,1.246-2.065c0.58-0.672,1.414-1.456,2.489-2.339c1.683-1.383,2.819-2.467,3.407-3.282
	c0.598-0.799,0.892-1.563,0.892-2.275c0-0.748-0.278-1.388-0.81-1.912c-0.542-0.513-1.242-0.768-2.106-0.768
	c-0.914,0-1.644,0.271-2.191,0.824c-0.551,0.552-0.829,1.314-0.837,2.282l-1.953-0.206c0.135-1.456,0.644-2.562,1.509-3.329
	c0.874-0.758,2.051-1.139,3.521-1.144c1.476,0.005,2.654,0.413,3.52,1.239c0.857,0.814,1.294,1.837,1.286,3.06
	c0.008,0.62-0.119,1.222-0.374,1.815c-0.254,0.604-0.674,1.232-1.254,1.896c-0.588,0.656-1.567,1.562-2.934,2.721
	c-1.134,0.954-1.866,1.609-2.191,1.948c-0.325,0.334-0.59,0.678-0.804,1.028H84.089L84.089,146.733z"/>
<path fill="#231F20" d="M130.197,91.872v-3.695h-6.703V86.43l7.057-10.021h1.555V86.43h2.09v1.747h-2.09v3.695H130.197
	L130.197,91.872z M130.197,86.429v-6.967l-4.838,6.967H130.197z"/>
<path fill="#FFFFFF" d="M59.376,260.719c37.334,37.35,90.433,49.316,137.896,35.961c-46.582,11.856-98.048-0.42-134.497-36.869
	c-55.003-55.009-55.003-144.223,0-199.229c17.67-17.665,38.87-29.645,61.322-35.971c-23.716,6.04-46.161,18.322-64.721,36.887
	C4.37,116.498,4.37,205.718,59.376,260.719z"/>
<rect x="112.973" y="227.213" fill="#A6A8AB" stroke="#231F20" stroke-miterlimit="10" width="98.707" height="39.02"/>
<g>
	<path d="M218.322,211.943h-0.045l-2.617,1.32l-0.462-2.048l3.477-1.716h2.267v14.302h-2.618L218.322,211.943L218.322,211.943z"/>
	<path d="M235.967,216.563c0,4.6-1.805,7.481-5.215,7.481c-3.301,0-5.061-2.992-5.083-7.351c0-4.443,1.894-7.437,5.237-7.437
		C234.361,209.259,235.967,212.339,235.967,216.563z M228.398,216.695c-0.022,3.477,0.945,5.281,2.441,5.281
		c1.584,0,2.42-1.938,2.42-5.369c0-3.322-0.792-5.28-2.42-5.28C229.389,211.327,228.375,213.109,228.398,216.695z"/>
</g>
<g>
	<path d="M166.497,73.078h-5.501l-0.418,2.86c0.33-0.044,0.615-0.066,1.033-0.066c1.256,0,2.51,0.286,3.478,0.925
		c1.078,0.682,1.87,1.892,1.87,3.63c0,2.729-2.266,4.951-5.786,4.951c-1.65,0-3.037-0.418-3.785-0.836l0.551-2.047
		c0.615,0.33,1.848,0.748,3.146,0.748c1.584,0,3.103-0.901,3.103-2.618c0-1.628-1.211-2.706-4.07-2.706
		c-0.792,0-1.386,0.044-1.958,0.132l0.946-7.217h7.393L166.497,73.078L166.497,73.078z"/>
</g>
<g>
	<path d="M107.326,219.973c0,4.6-1.805,7.481-5.215,7.481c-3.301,0-5.061-2.992-5.083-7.351c0-4.443,1.893-7.437,5.236-7.437
		C105.72,212.669,107.326,215.749,107.326,219.973z M99.757,220.105c-0.022,3.477,0.946,5.28,2.442,5.28
		c1.584,0,2.42-1.937,2.42-5.368c0-3.322-0.792-5.281-2.42-5.281C100.747,214.736,99.734,216.52,99.757,220.105z"/>
</g>
<g>
	<path d="M95.292,107.759c0.55,0.33,1.893,0.88,3.256,0.88c2.068,0,2.905-1.167,2.883-2.289c0-1.694-1.584-2.42-3.234-2.42h-1.254
		v-1.98h1.21c1.254,0,2.838-0.572,2.838-2.002c0-0.968-0.726-1.782-2.288-1.782c-1.166,0-2.333,0.506-2.926,0.902l-0.616-1.958
		c0.814-0.572,2.398-1.1,4.115-1.1c2.948,0,4.466,1.628,4.466,3.499c0,1.496-0.88,2.728-2.64,3.344v0.044
		c1.738,0.308,3.146,1.628,3.146,3.564c0,2.42-2.024,4.335-5.567,4.335c-1.738,0-3.234-0.484-4.004-0.99L95.292,107.759z"/>
</g>
<g>
	<path d="M202.76,81.85c-0.396,0-0.836,0-1.386,0.066c-2.993,0.352-4.445,2.2-4.797,4.181h0.065
		c0.705-0.814,1.782-1.386,3.213-1.386c2.465,0,4.379,1.76,4.379,4.665c0,2.729-2.004,5.105-5.039,5.105
		c-3.478,0-5.392-2.641-5.392-6.161c0-2.75,0.99-4.995,2.486-6.425c1.319-1.232,3.036-1.937,5.083-2.112
		c0.594-0.066,1.034-0.066,1.363-0.044L202.76,81.85z M201.484,89.53c0-1.65-0.901-2.838-2.486-2.838
		c-1.012,0-1.914,0.616-2.332,1.474c-0.109,0.22-0.176,0.484-0.176,0.858c0.044,1.893,0.945,3.433,2.685,3.433
		C200.583,92.456,201.484,91.246,201.484,89.53z"/>
</g>
<g>
	<path d="M230.716,100.808v1.738l-6.051,12.564h-2.86l6.029-12.014v-0.044h-6.732v-2.245L230.716,100.808L230.716,100.808z"/>
</g>
<g>
	<path d="M241.684,150.019c0-1.783,1.033-2.993,2.685-3.719v-0.066c-1.496-0.726-2.179-1.915-2.179-3.168
		c0-2.333,2.067-3.917,4.774-3.917c3.08,0,4.488,1.848,4.488,3.608c0,1.21-0.638,2.464-2.2,3.234v0.066
		c1.563,0.594,2.729,1.827,2.729,3.609c0,2.552-2.155,4.269-5.215,4.269C243.421,153.936,241.684,152.021,241.684,150.019z
		 M249.23,149.887c0-1.452-1.078-2.244-2.662-2.684c-1.342,0.396-2.112,1.32-2.112,2.508c-0.044,1.21,0.88,2.31,2.397,2.31
		C248.284,152.021,249.23,151.119,249.23,149.887z M244.764,142.956c0,1.166,0.969,1.87,2.332,2.244
		c0.969-0.286,1.782-1.078,1.782-2.156c0-0.99-0.595-2.024-2.047-2.024C245.467,141.02,244.764,141.922,244.764,142.956z"/>
</g>
<g>
	<path d="M239.73,190.902c0.418,0.045,0.838,0.021,1.498-0.045c1.056-0.088,2.111-0.461,2.903-1.101
		c0.925-0.748,1.562-1.825,1.826-3.168l-0.044-0.021c-0.727,0.813-1.738,1.274-3.125,1.274c-2.486,0-4.334-1.804-4.334-4.444
		c0-2.729,2.111-5.104,5.17-5.104c3.323,0,5.105,2.618,5.105,6.096c0,3.059-1.014,5.236-2.486,6.646
		c-1.255,1.166-2.971,1.825-4.885,1.957c-0.616,0.065-1.232,0.065-1.629,0.045V190.902L239.73,190.902z M241.139,183.246
		c0.022,1.474,0.858,2.617,2.354,2.617c1.101,0,1.893-0.506,2.312-1.188c0.088-0.176,0.153-0.396,0.153-0.77
		c0.021-1.938-0.704-3.609-2.465-3.609C242.129,180.297,241.139,181.508,241.139,183.246z"/>
</g>
<g>
	<line fill="none" stroke="#999999" stroke-miterlimit="10" x1="71.32" y1="232.184" x2="84.089" y2="222.725"/>
	<line fill="none" stroke="#999999" stroke-miterlimit="10" x1="63.795" y1="221.136" x2="76.849" y2="212.669"/>
	<line fill="none" stroke="#999999" stroke-miterlimit="10" x1="58.295" y1="211.469" x2="71.795" y2="204.136"/>
	<line fill="none" stroke="#999999" stroke-miterlimit="10" x1="53.27" y1="200.059" x2="67.875" y2="194.469"/>
	<line fill="none" stroke="#999999" stroke-miterlimit="10" x1="47.462" y1="176.469" x2="62.629" y2="174.635"/>
	<line fill="none" stroke="#999999" stroke-miterlimit="10" x1="46.265" y1="165.802" x2="61.962" y2="165.135"/>
	<line fill="none" stroke="#999999" stroke-miterlimit="10" x1="46.265" y1="155.802" x2="61.788" y2="156.969"/>
	<line fill="none" stroke="#999999" stroke-miterlimit="10" x1="47.129" y1="144.636" x2="62.629" y2="147.383"/>
	<line fill="none" stroke="#999999" stroke-miterlimit="10" x1="51.462" y1="125.802" x2="65.962" y2="130.469"/>
	<line fill="none" stroke="#999999" stroke-miterlimit="10" x1="54.879" y1="116.539" x2="68.795" y2="122.802"/>
	<line fill="none" stroke="#999999" stroke-miterlimit="10" x1="59.295" y1="106.802" x2="72.713" y2="114.302"/>
	<line fill="none" stroke="#999999" stroke-miterlimit="10" x1="66.004" y1="96.009" x2="78.64" y2="105.185"/>
	<line fill="none" stroke="#999999" stroke-miterlimit="10" x1="80.219" y1="78.601" x2="91.865" y2="89.448"/>
	<line fill="none" stroke="#999999" stroke-miterlimit="10" x1="87.462" y1="71.969" x2="97.961" y2="84.024"/>
	<line fill="none" stroke="#999999" stroke-miterlimit="10" x1="95.629" y1="65.802" x2="105.246" y2="78.601"/>
	<line fill="none" stroke="#999999" stroke-miterlimit="10" x1="105.246" y1="59.659" x2="113.462" y2="73.469"/>
	<line fill="none" stroke="#999999" stroke-miterlimit="10" x1="124.629" y1="51.469" x2="129.939" y2="66.564"/>
	<line fill="none" stroke="#999999" stroke-miterlimit="10" x1="133.462" y1="48.469" x2="137.129" y2="64.302"/>
	<line fill="none" stroke="#999999" stroke-miterlimit="10" x1="140.962" y1="46.636" x2="143.795" y2="63.373"/>
	<line fill="none" stroke="#999999" stroke-miterlimit="10" x1="150.129" y1="45.636" x2="151.629" y2="61.796"/>
	<line fill="none" stroke="#999999" stroke-miterlimit="10" x1="171.129" y1="45.302" x2="169.295" y2="62.136"/>
	<line fill="none" stroke="#999999" stroke-miterlimit="10" x1="180.962" y1="45.934" x2="177.943" y2="63.373"/>
	<line fill="none" stroke="#999999" stroke-miterlimit="10" x1="191.462" y1="48.802" x2="186.795" y2="65.302"/>
	<line fill="none" stroke="#999999" stroke-miterlimit="10" x1="203.462" y1="52.969" x2="197.271" y2="68.242"/>
	<line fill="none" stroke="#999999" stroke-miterlimit="10" x1="224.307" y1="63.373" x2="214.68" y2="77.997"/>
	<line fill="none" stroke="#999999" stroke-miterlimit="10" x1="230.716" y1="67.783" x2="219.494" y2="81.562"/>
	<line fill="none" stroke="#999999" stroke-miterlimit="10" x1="237.684" y1="73.469" x2="225.909" y2="85.868"/>
	<line fill="none" stroke="#999999" stroke-miterlimit="10" x1="246.044" y1="81.562" x2="231.795" y2="92.545"/>
	<line fill="none" stroke="#999999" stroke-miterlimit="10" x1="255.602" y1="93.217" x2="241.295" y2="103.969"/>
	<line fill="none" stroke="#999999" stroke-miterlimit="10" x1="261.271" y1="101.94" x2="246.044" y2="110.795"/>
	<line fill="none" stroke="#999999" stroke-miterlimit="10" x1="266.295" y1="112.469" x2="249.755" y2="119.014"/>
	<line fill="none" stroke="#999999" stroke-miterlimit="10" x1="271.339" y1="125.136" x2="253.659" y2="130.802"/>
	<line fill="none" stroke="#999999" stroke-miterlimit="10" x1="276.462" y1="152.969" x2="258.598" y2="153.936"/>
	<line fill="none" stroke="#999999" stroke-miterlimit="10" x1="277.096" y1="163.285" x2="258.802" y2="163.284"/>
	<line fill="none" stroke="#999999" stroke-miterlimit="10" x1="275.464" y1="175.302" x2="258.025" y2="171.636"/>
	<line fill="none" stroke="#999999" stroke-miterlimit="10" x1="274.35" y1="185.673" x2="256.462" y2="180.636"/>
	<line fill="none" stroke="#999999" stroke-miterlimit="10" x1="268.295" y1="204.136" x2="251.98" y2="196.824"/>
	<line fill="none" stroke="#999999" stroke-miterlimit="10" x1="263.795" y1="212.669" x2="248.73" y2="203.736"/>
	<line fill="none" stroke="#999999" stroke-miterlimit="10" x1="258.802" y1="221.136" x2="244.295" y2="211.136"/>
	<line fill="none" stroke="#999999" stroke-miterlimit="10" x1="251.98" y1="232.302" x2="238.456" y2="221.136"/>
</g>
<g>
	<path d="M144.076,205.695c0.922-0.184,2.79-0.323,4.541-0.323c2.144,0,3.458,0.207,4.588,0.876
		c1.083,0.576,1.868,1.637,1.868,3.043c0,1.384-0.808,2.675-2.559,3.319v0.046c1.774,0.484,3.089,1.823,3.089,3.827
		c0,1.406-0.645,2.514-1.614,3.296c-1.129,0.899-3.02,1.407-6.108,1.407c-1.73,0-3.02-0.114-3.804-0.229V205.695z M147.557,211.643
		h1.153c1.844,0,2.836-0.76,2.836-1.912c0-1.178-0.899-1.799-2.49-1.799c-0.761,0-1.199,0.045-1.499,0.091V211.643z
		 M147.557,218.536c0.346,0.046,0.761,0.046,1.361,0.046c1.59,0,2.996-0.6,2.996-2.237c0-1.567-1.406-2.189-3.158-2.189h-1.199
		V218.536z"/>
	<path d="M161.522,217.037l-1.106,3.988h-3.642l4.749-15.538h4.611l4.818,15.538h-3.781l-1.198-3.988H161.522z M165.465,214.408
		l-0.968-3.296c-0.276-0.922-0.554-2.075-0.785-2.996h-0.045c-0.23,0.921-0.462,2.098-0.715,2.996l-0.923,3.296H165.465z"/>
	<path d="M173.021,205.695c1.128-0.184,2.812-0.323,4.68-0.323c2.306,0,3.919,0.347,5.024,1.223c0.923,0.737,1.43,1.82,1.43,3.25
		c0,1.981-1.405,3.343-2.743,3.827v0.069c1.083,0.437,1.684,1.476,2.075,2.904c0.483,1.752,0.97,3.78,1.269,4.38h-3.597
		c-0.254-0.438-0.622-1.706-1.083-3.62c-0.416-1.936-1.084-2.467-2.514-2.489h-1.061v6.109h-3.48V205.695z M176.502,212.381h1.384
		c1.751,0,2.789-0.877,2.789-2.236c0-1.43-0.968-2.145-2.581-2.168c-0.854,0-1.337,0.071-1.592,0.117V212.381z"/>
</g>
</svg>
